<svg viewBox="0 0 40 40" fill="none" xmlns="http://www.w3.org/2000/svg">
<path d="M20.3333 20.3333C18.5 20.3333 16.9306 19.6806 15.625 18.375C14.3194 17.0694 13.6667 15.5 13.6667 13.6667C13.6667 11.8333 14.3194 10.2639 15.625 8.95833C16.9306 7.65278 18.5 7 20.3333 7C22.1667 7 23.7361 7.65278 25.0417 8.95833C26.3472 10.2639 27 11.8333 27 13.6667C27 15.5 26.3472 17.0694 25.0417 18.375C23.7361 19.6806 22.1667 20.3333 20.3333 20.3333ZM7 43.6667V29C7 28.0556 7.24333 27.1878 7.73 26.3967C8.21667 25.6056 8.86222 25.0011 9.66667 24.5833C11.3889 23.7222 13.1389 23.0767 14.9167 22.6467C16.6944 22.2167 18.5 22.0011 20.3333 22C22.1667 22 23.9722 22.2156 25.75 22.6467C27.5278 23.0778 29.2778 23.7233 31 24.5833C31.8056 25 32.4517 25.6044 32.9383 26.3967C33.425 27.1889 33.6678 28.0567 33.6667 29V43.6667H7Z" fill="#ffffff"/>
<circle cx="20" cy="20" r="19" />
</svg>
