<svg xmlns="http://www.w3.org/2000/svg" viewBox="0 0 128 128"><path d="M64.52 47.6a15 15 0 0 0-14.85 13h29.7a15 15 0 0 0-14.85-13zM82.83 64.59H46.21a.74.74 0 0 0-.74.73V67a.74.74 0 0 0 .74.73h36.62a.73.73 0 0 0 .73-.73v-1.68a.73.73 0 0 0-.73-.73zM66.48 42.74a1.06 1.06 0 0 0-1.06-1.05h-1.81a1 1 0 0 0-1 1.05v.86h3.92zM39.93 120.39l2.38-2.22a3 3 0 0 1 2-.81 3 3 0 0 1 2 .81l2.38 2.22v-9.12h-8.76zM82.51 7.88a7.94 7.94 0 0 0-5.94-1.48l-41.4 5.7h50.25a7.85 7.85 0 0 0-2.91-4.22z"/><path d="M96.23 16.1H24.8v83.17a8 8 0 0 0 8 8h63.43a8 8 0 0 0 8-8V24.1a8 8 0 0 0-8-8zM87.56 67a4.73 4.73 0 0 1-4.73 4.73H46.21A4.74 4.74 0 0 1 41.47 67v-1.68a4.75 4.75 0 0 1 4.17-4.7 19 19 0 0 1 12.92-16v-1.88a5.06 5.06 0 0 1 5-5.05h1.81a5.06 5.06 0 0 1 5.06 5.05v1.83a19 19 0 0 1 12.92 16 4.74 4.74 0 0 1 4.16 4.7z"/></svg>