<svg viewBox="0 0 180 507" fill="none" xmlns="http://www.w3.org/2000/svg">
<path d="M100.789 21.162C80.002 21.1736 60.0694 29.4559 45.3668 44.1904C30.6643 58.925 22.3935 78.9076 22.3704 99.7513V141.437C22.3704 171.627 40.9076 173.933 62 186C67.1022 188.883 77.4168 215.659 80.1624 220.846C82.908 226.033 84.113 231.901 83.6347 237.754L65.6493 466.984C65.4185 472.359 66.2639 477.725 68.1353 482.767C70.0068 487.809 72.8664 492.424 76.5456 496.34C79.6277 499.7 83.3718 502.383 87.541 504.218C91.7102 506.053 96.2138 507 100.767 507C105.32 507 109.824 506.053 113.993 504.218C118.162 502.383 121.906 499.7 124.988 496.34C128.696 492.372 131.571 487.698 133.443 482.595C135.315 477.492 136.145 472.064 135.885 466.633L117.899 237.754C117.447 231.923 118.664 226.083 121.408 220.921C124.153 215.76 128.309 211.491 133.39 208.618C154.483 196.551 179.163 171.759 179.163 141.569V99.8829C179.181 89.5514 177.166 79.3178 173.235 69.7677C169.304 60.2176 163.534 51.5384 156.254 44.2268C148.975 36.9151 140.329 31.1145 130.812 27.1568C121.294 23.1991 111.092 21.162 100.789 21.162Z" fill="black"/>
<path d="M78.4184 0C57.6317 0.0116121 37.699 8.29386 22.9965 23.0284C8.29394 37.763 0.0231833 57.7456 0 78.5893V120.275C0 150.465 24.6808 175.257 45.7732 187.324C50.8754 190.207 55.0465 194.497 57.792 199.684C60.5376 204.871 61.7427 210.739 61.2644 216.592L43.2789 445.822C43.0482 451.197 43.8935 456.563 45.765 461.605C47.6364 466.647 50.4961 471.262 54.1752 475.178C57.2574 478.538 61.0015 481.221 65.1707 483.056C69.3398 484.891 73.8434 485.838 78.3965 485.838C82.9496 485.838 87.4532 484.891 91.6224 483.056C95.7916 481.221 99.5357 478.538 102.618 475.178C106.326 471.21 109.201 466.536 111.073 461.433C112.945 456.33 113.775 450.902 113.514 445.471L95.5287 216.592C95.0762 210.761 96.2937 204.921 99.0379 199.759C101.782 194.598 105.939 190.329 111.02 187.456C132.112 175.389 156.793 150.597 156.793 120.407V78.7209C156.81 68.3894 154.796 58.1558 150.865 48.6057C146.934 39.0556 141.164 30.3764 133.884 23.0648C126.605 15.7531 117.959 9.95253 108.441 5.99482C98.924 2.03711 88.7217 -1.44939e-05 78.4184 0ZM121.785 87.3653C119.464 87.3653 117.238 86.4407 115.596 84.7949C113.955 83.1491 113.033 80.9168 113.033 78.5893C113.021 69.3874 109.371 60.5657 102.882 54.059C96.3927 47.5523 87.5951 43.8917 78.4184 43.8801C76.0972 43.8801 73.8711 42.9555 72.2298 41.3097C70.5884 39.6639 69.6663 37.4316 69.6663 35.1041C69.6663 32.7765 70.5884 30.5443 72.2298 28.8985C73.8711 27.2527 76.0972 26.3281 78.4184 26.3281C92.234 26.3513 105.477 31.8648 115.246 41.6607C125.015 51.4565 130.514 64.7359 130.537 78.5893C130.537 80.9168 129.615 83.1491 127.973 84.7949C126.332 86.4407 124.106 87.3653 121.785 87.3653Z" fill="#C36E70"/>
</svg>
